{
  "accessors": [
    {
      "bufferView": 2,
      "componentType": 5126,
      "count": 1105,
      "max": [
        2.2079799175262451,
        3.6677100658416748,
        8.104339599609375
      ],
      "min": [
        -6.3152899742126465,
        -3.6677100658416748,
        0
      ],
      "type": "VEC3"
    },
    {
      "bufferView": 2,
      "byteOffset": 13260,
      "componentType": 5126,
      "count": 1105,
      "max": [
        1,
        1,
        0.99993962049484253
      ],
      "min": [
        -1,
        -1,
        -1
      ],
      "type": "VEC3"
    },
    {
      "bufferView": 1,
      "componentType": 5126,
      "count": 1105,
      "max": [
        0.9962800145149231,
        0.99453002214431763
      ],
      "min": [
        0.007350000087171793,
        0.0076399999670684338
      ],
      "type": "VEC2"
    },
    {
      "bufferView": 0,
      "componentType": 5125,
      "count": 3594,
      "max": [
        1104
      ],
      "min": [
        0
      ],
      "type": "SCALAR"
    },
    {
      "bufferView": 2,
      "byteOffset": 26520,
      "componentType": 5126,
      "count": 81,
      "max": [
        1.9054199457168579,
        2.0141799449920654,
        7.412409782409668
      ],
      "min": [
        1.4581199884414673,
        -2.0141799449920654,
        4.5874600410461426
      ],
      "type": "VEC3"
    },
    {
      "bufferView": 2,
      "byteOffset": 27492,
      "componentType": 5126,
      "count": 81,
      "max": [
        0.99967539310455322,
        0.17975586652755737,
        0.22434647381305695
      ],
      "min": [
        0.94266080856323242,
        -0.17975586652755737,
        -0.28120917081832886
      ],
      "type": "VEC3"
    },
    {
      "bufferView": 1,
      "byteOffset": 8840,
      "componentType": 5126,
      "count": 81,
      "max": [
        1,
        1
      ],
      "min": [
        0,
        0
      ],
      "type": "VEC2"
    },
    {
      "bufferView": 0,
      "byteOffset": 14376,
      "componentType": 5125,
      "count": 384,
      "max": [
        80
      ],
      "min": [
        0
      ],
      "type": "SCALAR"
    },
    {
      "bufferView": 2,
      "byteOffset": 28464,
      "componentType": 5126,
      "count": 2145,
      "max": [
        5.5555601119995117,
        3.6363599300384521,
        1.3685100078582764
      ],
      "min": [
        -3.432499885559082,
        -5.1111898422241211,
        0
      ],
      "type": "VEC3"
    },
    {
      "bufferView": 2,
      "byteOffset": 54204,
      "componentType": 5126,
      "count": 2145,
      "max": [
        1,
        1,
        0.99971097707748413
      ],
      "min": [
        -0.99919873476028442,
        -1,
        -1
      ],
      "type": "VEC3"
    },
    {
      "bufferView": 1,
      "byteOffset": 9488,
      "componentType": 5126,
      "count": 2145,
      "max": [
        0.93138998746871948,
        0.98413997888565063
      ],
      "min": [
        0.0067199999466538429,
        0.0067199999466538429
      ],
      "type": "VEC2"
    },
    {
      "bufferView": 0,
      "byteOffset": 15912,
      "componentType": 5125,
      "count": 5280,
      "max": [
        2144
      ],
      "min": [
        0
      ],
      "type": "SCALAR"
    }
  ],
  "asset": {
    "extras": {
      "author": "maxdragonn (https://sketchfab.com/maxdragon)",
      "license": "CC-BY-4.0 (http://creativecommons.org/licenses/by/4.0/)",
      "source": "https://sketchfab.com/3d-models/ibm-3277-terminal-68d92f0653be47119142e4b14c2715e0",
      "title": "IBM 3277 terminal"
    },
    "generator": "Sketchfab-9.99.1",
    "version": "2.0"
  },
  "bufferViews": [
    {
      "buffer": 0,
      "byteLength": 37032,
      "byteOffset": 0,
      "name": "floatBufferViews",
      "target": 34963
    },
    {
      "buffer": 0,
      "byteLength": 26648,
      "byteOffset": 37032,
      "byteStride": 8,
      "name": "floatBufferViews",
      "target": 34962
    },
    {
      "buffer": 0,
      "byteLength": 79944,
      "byteOffset": 63680,
      "byteStride": 12,
      "name": "floatBufferViews",
      "target": 34962
    }
  ],
  "buffers": [
    {
      "byteLength": 143624,
      "uri": "scene.bin"
    }
  ],
  "images": [
    {
      "uri": "textures/ibm_3277_baseColor.png"
    },
    {
      "uri": "textures/display_baseColor.png"
    },
    {
      "uri": "textures/display_emissive.png"
    },
    {
      "uri": "textures/ibm_3277_keyboard_baseColor.png"
    }
  ],
  "materials": [
    {
      "doubleSided": true,
      "emissiveFactor": [
        0,
        0,
        0
      ],
      "name": "ibm_3277",
      "pbrMetallicRoughness": {
        "baseColorFactor": [
          1,
          1,
          1,
          1
        ],
        "baseColorTexture": {
          "index": 0,
          "texCoord": 0
        },
        "metallicFactor": 0,
        "roughnessFactor": 0.81037307942530201
      }
    },
    {
      "doubleSided": true,
      "emissiveFactor": [
        0.059999999999999998,
        0.059999999999999998,
        0.059999999999999998
      ],
      "emissiveTexture": {
        "index": 2,
        "texCoord": 0
      },
      "name": "display",
      "pbrMetallicRoughness": {
        "baseColorFactor": [
          1,
          1,
          1,
          1
        ],
        "baseColorTexture": {
          "index": 1,
          "texCoord": 0
        },
        "metallicFactor": 0.17195489727547442,
        "roughnessFactor": 0.11666484261471766
      }
    },
    {
      "doubleSided": true,
      "emissiveFactor": [
        0,
        0,
        0
      ],
      "name": "ibm_3277_keyboard",
      "pbrMetallicRoughness": {
        "baseColorFactor": [
          1,
          1,
          1,
          1
        ],
        "baseColorTexture": {
          "index": 3,
          "texCoord": 0
        },
        "metallicFactor": 0,
        "roughnessFactor": 0.62188771136201959
      }
    }
  ],
  "meshes": [
    {
      "name": "ibm_3277_0",
      "primitives": [
        {
          "attributes": {
            "NORMAL": 1,
            "POSITION": 0,
            "TEXCOORD_0": 2
          },
          "indices": 3,
          "material": 0,
          "mode": 4
        }
      ]
    },
    {
      "name": "ibm_3277_1",
      "primitives": [
        {
          "attributes": {
            "NORMAL": 5,
            "POSITION": 4,
            "TEXCOORD_0": 6
          },
          "indices": 7,
          "material": 1,
          "mode": 4
        }
      ]
    },
    {
      "name": "ibm_3277_2",
      "primitives": [
        {
          "attributes": {
            "NORMAL": 9,
            "POSITION": 8,
            "TEXCOORD_0": 10
          },
          "indices": 11,
          "material": 2,
          "mode": 4
        }
      ]
    }
  ],
  "nodes": [
    {
      "children": [
        1
      ],
      "name": "RootNode (gltf orientation matrix)",
      "rotation": [
        -0.70710678118654746,
        -0,
        -0,
        0.70710678118654757
      ]
    },
    {
      "children": [
        2
      ],
      "name": "RootNode (model correction matrix)"
    },
    {
      "children": [
        3,
        5
      ],
      "name": "Root"
    },
    {
      "children": [
        4
      ],
      "matrix": [
        -0.29086000000000006,
        0.95517000000000007,
        -0.05519000000000001,
        0,
        -0.77110000000000001,
        -0.19988000000000003,
        0.60452000000000006,
        0,
        0.56639000000000006,
        0.21839000000000003,
        0.7946700000000001,
        0,
        4.0762500000000008,
        1.00545,
        5.9038600000000008,
        1
      ],
      "name": "Lamp"
    },
    {
      "name": "Lamp"
    },
    {
      "children": [
        6,
        7,
        8
      ],
      "matrix": [
        3.2076000000000002,
        0,
        0,
        0,
        0,
        3.2076000000000002,
        0,
        0,
        0,
        0,
        3.2076000000000002,
        0,
        0,
        30,
        0,
        1
      ],
      "name": "ibm_3277"
    },
    {
      "mesh": 0,
      "name": "ibm_3277_0"
    },
    {
      "mesh": 1,
      "name": "ibm_3277_1"
    },
    {
      "mesh": 2,
      "name": "ibm_3277_2"
    }
  ],
  "samplers": [
    {
      "magFilter": 9729,
      "minFilter": 9987,
      "wrapS": 10497,
      "wrapT": 10497
    }
  ],
  "scene": 0,
  "scenes": [
    {
      "name": "OSG_Scene",
      "nodes": [
        0
      ]
    }
  ],
  "textures": [
    {
      "sampler": 0,
      "source": 0
    },
    {
      "sampler": 0,
      "source": 1
    },
    {
      "sampler": 0,
      "source": 2
    },
    {
      "sampler": 0,
      "source": 3
    }
  ]
}

