{"accessors":[{"bufferView":0,"componentType":5125,"count":6,"max":[5.0],"min":[0.0],"type":"SCALAR"},{"bufferView":1,"componentType":5126,"count":6,"max":[0.5,0.5,0.5],"min":[-0.5,-0.5,0.5],"type":"VEC3"},{"bufferView":2,"componentType":5126,"count":6,"max":[1.1754943508222876e-38,1.1754943508222876e-38,1.0],"min":[0.0,0.0,1.0],"type":"VEC3"},{"bufferView":3,"componentType":5126,"count":6,"max":[0.9892349243164063,0.9922518730163574],"min":[0.004959867801517248,0.007976889610290528],"type":"VEC2"},{"bufferView":4,"componentType":5125,"count":30,"max":[29.0],"min":[0.0],"type":"SCALAR"},{"bufferView":5,"componentType":5126,"count":30,"max":[0.5,0.5,0.5],"min":[-0.5,-0.5,-0.5],"type":"VEC3"},{"bufferView":6,"componentType":5126,"count":30,"max":[1.0,1.0,1.1754943508222876e-38],"min":[-1.0,-1.0,-1.0],"type":"VEC3"},{"bufferView":7,"componentType":5126,"count":30,"max":[0.9471389055252075,0.9980079531669617],"min":[0.0018905255710706115,0.0019919872283935549],"type":"VEC2"}],"asset":{"generator":"SimLab GLTF","version":"2.0"},"bufferViews":[{"buffer":0,"byteLength":24,"target":34963},{"buffer":0,"byteLength":72,"byteOffset":24,"byteStride":12,"target":34962},{"buffer":0,"byteLength":72,"byteOffset":96,"byteStride":12,"target":34962},{"buffer":0,"byteLength":48,"byteOffset":168,"byteStride":8,"target":34962},{"buffer":0,"byteLength":120,"byteOffset":216,"target":34963},{"buffer":0,"byteLength":360,"byteOffset":336,"byteStride":12,"target":34962},{"buffer":0,"byteLength":360,"byteOffset":696,"byteStride":12,"target":34962},{"buffer":0,"byteLength":240,"byteOffset":1056,"byteStride":8,"target":34962}],"buffers":[{"byteLength":1296,"uri":"Test File 2 GIF.bin"}],"images":[{"uri":"Textures/5568ef61-0f5e-4dab-9c5f-44fc8306cd1d.gif"}],"materials":[{"alphaMode":"OPAQUE","doubleSided":true,"pbrMetallicRoughness":{"baseColorTexture":{"index":0},"metallicFactor":0.0}},{"alphaMode":"OPAQUE","doubleSided":true,"pbrMetallicRoughness":{"baseColorFactor":[0.18611998856067658,0.4613681137561798,0.4950000047683716,1.0],"metallicFactor":0.0}}],"meshes":[{"primitives":[{"attributes":{"NORMAL":2,"POSITION":1,"TEXCOORD_0":3},"indices":0,"material":0,"mode":4}]},{"primitives":[{"attributes":{"NORMAL":6,"POSITION":5,"TEXCOORD_0":7},"indices":4,"material":1,"mode":4}]}],"nodes":[{"children":[1,2,3,4,5],"matrix":[1.0,0.0,0.0,0.0,0.0,4.4896593387466768e-11,-1.0,0.0,0.0,1.0,4.4896593387466768e-11,0.0,0.0,0.0,0.0,1.0]},{"name":"front","rotation":[-0.7071067690849304,0.0,0.0,-0.7071067690849304],"translation":[0.0,-10.00100040435791,0.0]},{"name":"persp","rotation":[-0.5152722597122192,0.015292922966182232,0.02542071044445038,-0.8565129637718201],"translation":[-0.011574927717447281,-0.19482819736003877,0.103505440056324]},{"name":"side","rotation":[-0.5,-0.5,-0.5,-0.5],"translation":[10.00100040435791,0.0,0.0]},{"name":"top","rotation":[0.0,0.0,0.0,-1.0],"translation":[0.0,0.0,10.00100040435791]},{"name":"Animation_pCube1","children":[6],"rotation":[-0.7071067690849304,0.0,0.0,-0.7071067690849304],"scale":[0.009999999776482582,0.009999999776482582,0.009999999776482582]},{"name":"Assembly-2","children":[7,10],"rotation":[0.0,0.0,0.0,-1.0]},{"name":"pCube1","children":[9],"rotation":[0.0,0.0,0.0,-1.0]},{"mesh":0},{"children":[8]},{"name":"pCube1","children":[12],"rotation":[0.0,0.0,0.0,-1.0]},{"mesh":1},{"children":[11]}],"samplers":[{"wrapS":10497,"wrapT":10497}],"scene":0,"scenes":[{"nodes":[0]}],"textures":[{"source":0}]}